<svg xmlns="http://www.w3.org/2000/svg" viewBox="0 0 680 664" width="680" height="664">
<style>
  text { font-family: -apple-system, BlinkMacSystemFont, "Segoe UI", Helvetica, Arial, sans-serif; }
  .title { font-size: 16px; font-weight: 600; fill: #1f2937; }
  .subtitle { font-size: 12px; fill: #6b7280; }
  .group-label { font-size: 13px; font-weight: 600; fill: #374151; }
  .bar-label { font-size: 12px; fill: #4b5563; }
  .bar-value { font-size: 12px; fill: #374151; font-weight: 500; }
  .multiplier { font-size: 11px; fill: #059669; font-weight: 600; }
</style>
<rect width="680" height="664" rx="8" fill="#ffffff" />
<rect x="0.5" y="0.5" width="679" height="663" rx="8" fill="none" stroke="#e5e7eb" />
<text x="20" y="28" class="title">Fuzzy Search Performance</text>
<text x="20" y="44" class="subtitle">ops/s (higher is better)</text>
<text x="20" y="66" class="group-label">Small</text>
<text x="172" y="91" class="bar-label" text-anchor="end">fuzzysort</text>
<rect x="180" y="74" width="460" height="26" rx="4" fill="#94a3b8" opacity="0.6" />
<text x="632" y="91" class="bar-value" text-anchor="end">2,655,421 ops/s</text>
<text x="172" y="122" class="bar-label" text-anchor="end">uFuzzy</text>
<rect x="180" y="105" width="160.61467465987502" height="26" rx="4" fill="#94a3b8" opacity="0.6" />
<text x="348.61467465987505" y="122" class="bar-value" text-anchor="start">927,173 ops/s</text>
<text x="172" y="153" class="bar-label" text-anchor="end">rapid-fuzzy (indexed)</text>
<rect x="180" y="136" width="70.03208154187227" height="26" rx="4" fill="#60a5fa" opacity="1" />
<text x="258.0320815418723" y="153" class="bar-value" text-anchor="start">404,271 ops/s — 2x vs fuse.js</text>
<text x="172" y="184" class="bar-label" text-anchor="end">rapid-fuzzy</text>
<rect x="180" y="167" width="49.835306717842485" height="26" rx="4" fill="#3b82f6" opacity="1" />
<text x="237.83530671784249" y="184" class="bar-value" text-anchor="start">287,682 ops/s — 2x vs fuse.js</text>
<text x="172" y="215" class="bar-label" text-anchor="end">fuse.js</text>
<rect x="180" y="198" width="21.929426633290916" height="26" rx="4" fill="#94a3b8" opacity="0.6" />
<text x="209.92942663329092" y="215" class="bar-value" text-anchor="start">126,591 ops/s</text>
<text x="20" y="262" class="group-label">Medium</text>
<text x="172" y="287" class="bar-label" text-anchor="end">rapid-fuzzy (indexed)</text>
<rect x="180" y="270" width="460" height="26" rx="4" fill="#60a5fa" opacity="1" />
<text x="632" y="287" class="bar-value" text-anchor="end" fill="#ffffff">79,616 ops/s — 19x vs fuse.js</text>
<text x="172" y="318" class="bar-label" text-anchor="end">fuzzysort</text>
<rect x="180" y="301" width="368.7984827170418" height="26" rx="4" fill="#94a3b8" opacity="0.6" />
<text x="540.7984827170418" y="318" class="bar-value" text-anchor="end">63,831 ops/s</text>
<text x="172" y="349" class="bar-label" text-anchor="end">uFuzzy</text>
<rect x="180" y="332" width="173.90398914790998" height="26" rx="4" fill="#94a3b8" opacity="0.6" />
<text x="361.90398914791" y="349" class="bar-value" text-anchor="start">30,099 ops/s</text>
<text x="172" y="380" class="bar-label" text-anchor="end">rapid-fuzzy</text>
<rect x="180" y="363" width="39.44458400321543" height="26" rx="4" fill="#3b82f6" opacity="1" />
<text x="227.44458400321543" y="380" class="bar-value" text-anchor="start">6,827 ops/s — 19x vs fuse.js</text>
<text x="172" y="411" class="bar-label" text-anchor="end">fuse.js</text>
<rect x="180" y="394" width="4" height="26" rx="4" fill="#94a3b8" opacity="0.6" />
<text x="192" y="411" class="bar-value" text-anchor="start">366 ops/s</text>
<text x="20" y="458" class="group-label">Large</text>
<text x="172" y="483" class="bar-label" text-anchor="end">rapid-fuzzy (indexed)</text>
<rect x="180" y="466" width="460" height="26" rx="4" fill="#60a5fa" opacity="1" />
<text x="632" y="483" class="bar-value" text-anchor="end" fill="#ffffff">136,294 ops/s — 46x vs fuse.js</text>
<text x="172" y="514" class="bar-label" text-anchor="end">fuzzysort</text>
<rect x="180" y="497" width="94.1539612895652" height="26" rx="4" fill="#94a3b8" opacity="0.6" />
<text x="282.1539612895652" y="514" class="bar-value" text-anchor="start">27,897 ops/s</text>
<text x="172" y="545" class="bar-label" text-anchor="end">uFuzzy</text>
<rect x="180" y="528" width="21.806242387779356" height="26" rx="4" fill="#94a3b8" opacity="0.6" />
<text x="209.80624238777935" y="545" class="bar-value" text-anchor="start">6,461 ops/s</text>
<text x="172" y="576" class="bar-label" text-anchor="end">rapid-fuzzy</text>
<rect x="180" y="559" width="4" height="26" rx="4" fill="#3b82f6" opacity="1" />
<text x="192" y="576" class="bar-value" text-anchor="start">827 ops/s — 46x vs fuse.js</text>
<text x="172" y="607" class="bar-label" text-anchor="end">fuse.js</text>
<rect x="180" y="590" width="4" height="26" rx="4" fill="#94a3b8" opacity="0.6" />
<text x="192" y="607" class="bar-value" text-anchor="start">18 ops/s</text>
</svg>