<svg xmlns="http://www.w3.org/2000/svg" viewBox="0 0 680 313" width="680" height="313">
<style>
  text { font-family: -apple-system, BlinkMacSystemFont, "Segoe UI", Helvetica, Arial, sans-serif; }
  .title { font-size: 16px; font-weight: 600; fill: #1f2937; }
  .subtitle { font-size: 12px; fill: #6b7280; }
  .group-label { font-size: 13px; font-weight: 600; fill: #374151; }
  .bar-label { font-size: 12px; fill: #4b5563; }
  .bar-value { font-size: 12px; fill: #374151; font-weight: 500; }
  .multiplier { font-size: 11px; fill: #059669; font-weight: 600; }
</style>
<rect width="680" height="313" rx="8" fill="#ffffff" />
<rect x="0.5" y="0.5" width="679" height="312" rx="8" fill="none" stroke="#e5e7eb" />
<text x="20" y="28" class="title">Distance Function Performance</text>
<text x="20" y="44" class="subtitle">ops/s (higher is better)</text>
<text x="20" y="66" class="group-label">Levenshtein</text>
<text x="172" y="91" class="bar-label" text-anchor="end">fastest-levenshtein</text>
<rect x="180" y="74" width="460" height="26" rx="4" fill="#94a3b8" opacity="0.6" />
<text x="632" y="91" class="bar-value" text-anchor="end">758,533 ops/s</text>
<text x="172" y="122" class="bar-label" text-anchor="end">rapid-fuzzy</text>
<rect x="180" y="105" width="342.39551871836824" height="26" rx="4" fill="#3b82f6" opacity="1" />
<text x="514.3955187183683" y="122" class="bar-value" text-anchor="end" fill="#ffffff">564,605 ops/s</text>
<text x="172" y="153" class="bar-label" text-anchor="end">leven</text>
<rect x="180" y="136" width="129.90113811791974" height="26" rx="4" fill="#94a3b8" opacity="0.6" />
<text x="317.90113811791974" y="153" class="bar-value" text-anchor="start">214,205 ops/s</text>
<text x="20" y="200" class="group-label">Sorensen-Dice</text>
<text x="172" y="225" class="bar-label" text-anchor="end">rapid-fuzzy</text>
<rect x="180" y="208" width="460" height="26" rx="4" fill="#3b82f6" opacity="1" />
<text x="632" y="225" class="bar-value" text-anchor="end" fill="#ffffff">152,317 ops/s</text>
<text x="172" y="256" class="bar-label" text-anchor="end">string-similarity</text>
<rect x="180" y="239" width="260.9264888357833" height="26" rx="4" fill="#94a3b8" opacity="0.6" />
<text x="432.9264888357833" y="256" class="bar-value" text-anchor="end">86,399 ops/s</text>
</svg>