<svg xmlns="http://www.w3.org/2000/svg" viewBox="0 0 680 313" width="680" height="313">
<style>
  text { font-family: -apple-system, BlinkMacSystemFont, "Segoe UI", Helvetica, Arial, sans-serif; }
  .title { font-size: 16px; font-weight: 600; fill: #1f2937; }
  .subtitle { font-size: 12px; fill: #6b7280; }
  .group-label { font-size: 13px; font-weight: 600; fill: #374151; }
  .bar-label { font-size: 12px; fill: #4b5563; }
  .bar-value { font-size: 12px; fill: #374151; font-weight: 500; }
  .multiplier { font-size: 11px; fill: #059669; font-weight: 600; }
</style>
<rect width="680" height="313" rx="8" fill="#ffffff" />
<rect x="0.5" y="0.5" width="679" height="312" rx="8" fill="none" stroke="#e5e7eb" />
<text x="20" y="28" class="title">Distance Function Performance</text>
<text x="20" y="44" class="subtitle">ops/s (higher is better)</text>
<text x="20" y="66" class="group-label">Levenshtein</text>
<text x="172" y="91" class="bar-label" text-anchor="end">fastest-levenshtein</text>
<rect x="180" y="74" width="460" height="26" rx="4" fill="#94a3b8" opacity="0.6" />
<text x="632" y="91" class="bar-value" text-anchor="end">741,195 ops/s</text>
<text x="172" y="122" class="bar-label" text-anchor="end">rapid-fuzzy</text>
<rect x="180" y="105" width="338.44734516557725" height="26" rx="4" fill="#3b82f6" opacity="1" />
<text x="510.4473451655772" y="122" class="bar-value" text-anchor="end" fill="#ffffff">545,338 ops/s</text>
<text x="172" y="153" class="bar-label" text-anchor="end">leven</text>
<rect x="180" y="136" width="139.92298922685663" height="26" rx="4" fill="#94a3b8" opacity="0.6" />
<text x="327.92298922685666" y="153" class="bar-value" text-anchor="start">225,457 ops/s</text>
<text x="20" y="200" class="group-label">Sorensen-Dice</text>
<text x="172" y="225" class="bar-label" text-anchor="end">rapid-fuzzy</text>
<rect x="180" y="208" width="460" height="26" rx="4" fill="#3b82f6" opacity="1" />
<text x="632" y="225" class="bar-value" text-anchor="end" fill="#ffffff">142,180 ops/s</text>
<text x="172" y="256" class="bar-label" text-anchor="end">string-similarity</text>
<rect x="180" y="239" width="183.53734702489803" height="26" rx="4" fill="#94a3b8" opacity="0.6" />
<text x="371.53734702489805" y="256" class="bar-value" text-anchor="start">56,729 ops/s</text>
</svg>